<svg xmlns="http://www.w3.org/2000/svg" width="320.492" height="344.068" viewBox="0 0 320.492 344.068">
  <path id="Ostergotland" d="M727.175,656.094l-6.929,14.9L705.7,665.1,692.184,680l4.85,8.661-5.89,9.008-11.086-.346L677.286,709.1l-4.157-7.276-6.583,3.118-12.126-7.275-7.968,9.7-7.275.346-6.236,7.969-5.2,10.047-2.772,9.7-12.126,6.929-1.732,16.976-9.354,11.086,9.354,7.622,7.968,1.732,4.5,4.157-8.315,5.2-5.2,12.819-8.315,3.811-5.89-6.236-5.89,2.425-.346,8.315-15.59,12.819-2.079,8.661-2.772,8.661,1.732,5.543-3.465,5.543L564,868.814l-7.622,25.291,9.008,3.811,19.4-3.118,1.039,7.969,19.055-3.811,5.2-10.394,6.583,3.465,5.89,22.173,3.118,8.315-4.85,5.89-4.5,10.74,2.771,10.047,9.7,11.779-1.732,6.236,4.85,17.323,5.543,13.165,19.748-2.079,18.015,4.157,1.732-11.78,3.811-5.2,8.315,1.386,2.772-9.008,7.622-6.929-1.386-7.622,12.126-2.772,14.9,4.85,2.079,8.315,10.047-5.2,7.275,5.2,13.511-12.472,6.583-.693-6.583-22.866,6.236-4.85-11.086-16.283,2.079-13.512,12.819,1.906,8.661-34.125,14.551,3.811,9.008-8.834,9.354-.346h2.6l3.811-.173,31.354,22.173,12.472,5.543,6.583-16.976-7.275-11.086-11.779-8.315,22.519-4.85,4.85-12.126-10.394-7.968-12.819-1.04-3.465-8.661-12.472-3.811-4.5-6.583,6.583.693,14.551,2.772,14.551-5.543,9.7-15.937L866.1,780.469l-15.59-12.126-19.055-8.661L811.363,758.3l-2.772,11.779-7.275-9.008-10.74,4.5-4.5-2.079.346-8.661,5.2-4.85,13.512,2.079h9.354l-3.368-8.818-7.026-2.962L788.5,709.794l-3.465-5.2-7.968-2.079-9.354-10.394-5.89-11.433L749,674.8l-12.819-8.661-2.425-6.583Z" transform="translate(-556.193 -655.888)" fill="#d40000" stroke="#000" stroke-linecap="square" stroke-width="0.3" fill-rule="evenodd"/>
</svg>
